<?xml version="1.0" encoding="utf-8"?>
<!-- Generator: Adobe Illustrator 24.2.0, SVG Export Plug-In . SVG Version: 6.00 Build 0)  -->
<svg version="1.1" id="_x33_425" xmlns="http://www.w3.org/2000/svg" xmlns:xlink="http://www.w3.org/1999/xlink" x="0px" y="0px"
	 viewBox="0 0 288 170.8" style="enable-background:new 0 0 288 170.8;" xml:space="preserve">
<style type="text/css">
	.st0{fill:#006241;}
</style>
<g>
	<g>
		<path class="st0" d="M0,1.6h19.8C34,1.6,40.3,8.7,40.3,22c0.5,6.7-3.1,13.1-9.2,16.1c6.7,3,10.7,8.3,10.7,18.2
			c0,12.7-5.7,22.3-20.7,22.3H0.1L0,1.6z M13.2,33.2H18c4.8,0.1,8.8-3.7,8.9-8.6c0-0.4,0-0.8-0.1-1.2c0-7.1-2.8-10.9-8.6-10.9h-5
			L13.2,33.2z M13.2,67.7h5.5c7.1,0,9.6-4.1,9.6-11.8S25.4,44,17.5,44h-4.3V67.7z"/>
		<path class="st0" d="M59.1,78.6H46.4l14.2-77H77l14.2,77H78.4L76,61.5H61.5L59.1,78.6z M63.4,50.2h10.7l-5.2-33.1h-0.2L63.4,50.2z
			"/>
		<path class="st0" d="M98.8,1.6h19.6C132.7,1.6,139,8.7,139,22c0.5,6.7-3.1,13.1-9.2,16.1c6.7,3,10.7,8.3,10.7,18.2
			c0,12.7-5.7,22.3-20.7,22.3H98.8L98.8,1.6z M112.1,33.2h4.8c4.8,0.1,8.8-3.7,8.9-8.6c0-0.4,0-0.8-0.1-1.2c0-7.1-2.8-10.9-8.6-10.9
			h-5L112.1,33.2z M112.1,67.7h5.4c7.1,0,9.6-4.1,9.6-11.8s-3-11.8-10.9-11.8H112L112.1,67.7z"/>
		<path class="st0" d="M174.5,20.6c-0.5-6.6-4.1-8.5-7.1-8.5c-4.3,0-6.6,2.8-6.6,7.6c0,13.1,26.9,19.4,26.9,40.3
			c0,12.7-8.5,19.7-20.9,19.7c-12.4,0-19.3-9.8-19.8-21.3l12.6-1.8c0.5,7.8,3.6,11.6,7.9,11.6c3.7,0.5,7.1-2.1,7.6-5.8
			c0.1-0.4,0.1-0.9,0-1.3c0-15.3-26.9-19.3-26.9-41.4c0-12.3,7.5-19.2,20.5-19.2c10.7,0,17.2,7.8,18.4,18.7L174.5,20.6z"/>
		<path class="st0" d="M195.9,20.3c0-10.9,6.4-19.7,20.3-19.7s20.3,8.9,20.3,19.7v39.7c0,10.9-6.4,19.7-20.3,19.7
			s-20.3-8.9-20.3-19.7V20.3z M209.1,59.6c0,5.8,1.7,8.5,7.1,8.5s7.1-2.8,7.1-8.5V20.5c0-5.8-1.7-8.5-7.1-8.5s-7.1,2.8-7.1,8.5V59.6
			z"/>
		<path class="st0" d="M247.4,78.6v-77h12.3l16.1,44.1h0.2V1.6h12v77h-11.5l-16.9-48.1h-0.2v48.1H247.4z"/>
	</g>
	<g>
		<path class="st0" d="M26.1,118.9v-5.8c0-6.4-2.9-9.2-6.3-9.2c-5.3,0-7,2.7-7,8.4V151c0,5.7,1.7,8.4,7,8.4c4.7,0,6.3-2.7,6.3-7.7
			v-9.2h13.2v8.7c0,10.7-6.3,19.5-19.4,19.5c-13.7,0-20-8.7-20-19.5V112c0-10.7,6.3-19.5,20-19.5c13.1,0,19.4,9.5,19.4,20.8v5.6
			H26.1z"/>
		<path class="st0" d="M45.1,112c0-10.7,6.3-19.5,20-19.5s20,8.7,20,19.5v39.2c0,10.7-6.3,19.5-20,19.5s-20-8.7-20-19.5V112z
			 M58.1,150.8c0,5.7,1.7,8.4,7,8.4c5.3,0,7-2.7,7-8.4v-38.6c0-5.7-1.7-8.4-7-8.4c-5.3,0-7,2.7-7,8.4V150.8z"/>
		<path class="st0" d="M91.6,169.6v-76h13.1v64.6h20.5v11.4H91.6z"/>
		<path class="st0" d="M130.7,169.6v-76h13.1v64.6h20.5v11.4H130.7z"/>
		<path class="st0" d="M169.4,169.6v-76H203v11.4h-20.4v19.6h16.8v11.4h-16.8v22.3h20.3v11.4L169.4,169.6z"/>
		<path class="st0" d="M226.2,131h21.4v38.6h-6.3l-2.4-5.7c-2.9,4.4-7.9,6.9-13.2,6.7c-10.3,0-17.5-7.4-17.5-19.5V112
			c0-10.7,6.3-19.5,19.2-19.5c12.8,0,19.6,9.5,19.6,20.8v4.8h-12.4c0-11.4-2.3-14.3-7.5-14.3c-3.2,0-5.8,1.9-5.8,8.3v39.1
			c0,4.8,1.6,8,6.1,8c5.3,0,7-2.9,7-10.5v-7.5H226L226.2,131z"/>
		<path class="st0" d="M254.4,169.6v-76h33.6v11.4h-20.4v19.6h16.8v11.4h-16.8v22.3h20.3v11.4L254.4,169.6z"/>
	</g>
</g>
</svg>
